<svg width="233" height="49" viewBox="0 0 233 49" fill="none" xmlns="http://www.w3.org/2000/svg">
<path d="M16.335 34.8055L17.5073 41.6008C17.6115 42.5381 17.2989 43.3192 16.5694 43.9441C15.84 44.5168 15.0323 44.647 14.1465 44.3346C12.0623 43.5535 10.2126 42.408 8.59735 40.8979L16.335 34.8055ZM39.8604 18.6374C40.121 19.4184 40.0168 20.1735 39.5478 20.9025C39.0789 21.6315 38.4015 21.996 37.5157 21.996C37.3594 21.996 37.2291 21.996 37.1249 21.996L30.3252 20.8244L36.4215 13.0918C37.9325 14.706 39.0789 16.5545 39.8604 18.6374ZM18.3671 6.29646L23.3692 22.5427C23.6297 23.48 23.4213 24.3132 22.7439 25.0422L20.5555 27.2292C19.826 27.9061 18.9923 28.1144 18.0544 27.854L1.79763 22.8552C1.12026 22.6469 0.625262 22.2563 0.312631 21.6836C0 21.1108 -0.0781577 20.5119 0.0781577 19.8871C1.06816 16.0338 2.91789 12.7793 5.62736 10.1237C8.28472 7.416 11.5413 5.56746 15.3971 4.57811C16.0223 4.42189 16.6215 4.5 17.1947 4.81243C17.7679 5.12486 18.1586 5.61953 18.3671 6.29646ZM35.0147 9.65507C35.0668 10.332 34.8844 10.9308 34.4676 11.4515L26.9644 21.0587C26.6518 21.4232 26.261 21.6836 25.792 21.8398C25.7399 21.8398 25.7399 21.8137 25.792 21.7617L20.7118 5.51539C20.6597 5.35918 20.6076 5.229 20.5555 5.12486C20.5034 5.02071 20.4513 4.94261 20.3992 4.89054C21.4934 4.63018 22.6397 4.5 23.8381 4.5C27.5897 4.55207 30.9765 5.69764 33.9986 7.93671C34.5718 8.35328 34.9104 8.92607 35.0147 9.65507ZM17.351 30.2753C17.1947 30.744 16.9342 31.1345 16.5694 31.4469L6.95604 38.9452C6.5392 39.3097 6.0442 39.492 5.47104 39.492C5.36683 39.492 5.26262 39.492 5.15841 39.492C4.42894 39.3878 3.85578 39.0494 3.43894 38.4766C1.98 36.5499 0.989998 34.415 0.468946 32.0718C-0.10421 29.7286 -0.130263 27.3593 0.390789 24.964C0.599209 25.0682 0.80763 25.1723 1.01605 25.2765L17.2729 30.1972C17.2729 30.2493 17.2729 30.2753 17.2729 30.2753C17.325 30.2753 17.351 30.2753 17.351 30.2753Z" fill="#A64F21"/>
<path d="M58.1009 36.5V13.2273H67.419C69.1312 13.2273 70.5592 13.4811 71.7031 13.9886C72.8471 14.4962 73.7069 15.2008 74.2827 16.1023C74.8584 16.9962 75.1463 18.0265 75.1463 19.1932C75.1463 20.1023 74.9645 20.9015 74.6009 21.5909C74.2372 22.2727 73.7372 22.8333 73.1009 23.2727C72.4721 23.7045 71.7524 24.0114 70.9418 24.1932V24.4205C71.8281 24.4583 72.6577 24.7083 73.4304 25.1705C74.2107 25.6326 74.8433 26.2803 75.3281 27.1136C75.813 27.9394 76.0554 28.9242 76.0554 30.0682C76.0554 31.303 75.7486 32.4053 75.1349 33.375C74.5289 34.3371 73.6312 35.0985 72.4418 35.6591C71.2524 36.2197 69.7865 36.5 68.044 36.5H58.1009ZM63.0213 32.4773H67.0327C68.4039 32.4773 69.4039 32.2159 70.0327 31.6932C70.6615 31.1629 70.9759 30.4583 70.9759 29.5795C70.9759 28.9356 70.8205 28.3674 70.5099 27.875C70.1993 27.3826 69.7562 26.9962 69.1804 26.7159C68.6122 26.4356 67.9342 26.2955 67.1463 26.2955H63.0213V32.4773ZM63.0213 22.9659H66.669C67.3433 22.9659 67.9418 22.8485 68.4645 22.6136C68.9948 22.3712 69.4115 22.0303 69.7145 21.5909C70.0251 21.1515 70.1804 20.625 70.1804 20.0114C70.1804 19.1705 69.8812 18.4924 69.2827 17.9773C68.6918 17.4621 67.8509 17.2045 66.7599 17.2045H63.0213V22.9659ZM84.1435 36.8295C83.0298 36.8295 82.0374 36.6364 81.1662 36.25C80.295 35.8561 79.6056 35.2765 79.098 34.5114C78.598 33.7386 78.348 32.7765 78.348 31.625C78.348 30.6553 78.526 29.8409 78.8821 29.1818C79.2382 28.5227 79.723 27.9924 80.3366 27.5909C80.9503 27.1894 81.6473 26.8864 82.4276 26.6818C83.2154 26.4773 84.0412 26.3333 84.9048 26.25C85.92 26.1439 86.7382 26.0455 87.3594 25.9545C87.9806 25.8561 88.4313 25.7121 88.7116 25.5227C88.992 25.3333 89.1321 25.053 89.1321 24.6818V24.6136C89.1321 23.8939 88.9048 23.3371 88.4503 22.9432C88.0033 22.5492 87.367 22.3523 86.5412 22.3523C85.67 22.3523 84.9768 22.5455 84.4616 22.9318C83.9465 23.3106 83.6056 23.7879 83.4389 24.3636L78.9616 24C79.1889 22.9394 79.6359 22.0227 80.3026 21.25C80.9692 20.4697 81.8291 19.8712 82.8821 19.4545C83.9427 19.0303 85.17 18.8182 86.5639 18.8182C87.5336 18.8182 88.4616 18.9318 89.348 19.1591C90.242 19.3864 91.0336 19.7386 91.723 20.2159C92.42 20.6932 92.9692 21.3068 93.3707 22.0568C93.7723 22.7992 93.973 23.6894 93.973 24.7273V36.5H89.3821V34.0795H89.2457C88.9654 34.625 88.5904 35.1061 88.1207 35.5227C87.651 35.9318 87.0866 36.2538 86.4276 36.4886C85.7685 36.7159 85.0071 36.8295 84.1435 36.8295ZM85.5298 33.4886C86.242 33.4886 86.8707 33.3485 87.4162 33.0682C87.9616 32.7803 88.3897 32.3939 88.7003 31.9091C89.0109 31.4242 89.1662 30.875 89.1662 30.2614V28.4091C89.0147 28.5076 88.8063 28.5985 88.5412 28.6818C88.2836 28.7576 87.992 28.8295 87.6662 28.8977C87.3404 28.9583 87.0147 29.0152 86.6889 29.0682C86.3632 29.1136 86.0677 29.1553 85.8026 29.1932C85.2344 29.2765 84.7382 29.4091 84.3139 29.5909C83.8897 29.7727 83.5601 30.0189 83.3253 30.3295C83.0904 30.6326 82.973 31.0114 82.973 31.4659C82.973 32.125 83.2116 32.6288 83.6889 32.9773C84.1738 33.3182 84.7874 33.4886 85.5298 33.4886ZM102.115 31.4773L102.126 25.6705H102.831L108.422 19.0455H113.979L106.467 27.8182H105.32L102.115 31.4773ZM97.7287 36.5V13.2273H102.57V36.5H97.7287ZM108.638 36.5L103.501 28.8977L106.729 25.4773L114.308 36.5H108.638ZM123.589 36.8409C121.794 36.8409 120.249 36.4773 118.953 35.75C117.665 35.0152 116.673 33.9773 115.976 32.6364C115.279 31.2879 114.93 29.6932 114.93 27.8523C114.93 26.0568 115.279 24.4811 115.976 23.125C116.673 21.7689 117.654 20.7121 118.919 19.9545C120.192 19.197 121.684 18.8182 123.396 18.8182C124.548 18.8182 125.62 19.0038 126.612 19.375C127.612 19.7386 128.483 20.2879 129.226 21.0227C129.976 21.7576 130.559 22.6818 130.976 23.7955C131.393 24.9015 131.601 26.197 131.601 27.6818V29.0114H116.862V26.0114H127.044C127.044 25.3144 126.893 24.697 126.589 24.1591C126.286 23.6212 125.866 23.2008 125.328 22.8977C124.798 22.5871 124.18 22.4318 123.476 22.4318C122.741 22.4318 122.089 22.6023 121.521 22.9432C120.961 23.2765 120.521 23.7273 120.203 24.2955C119.885 24.8561 119.722 25.4811 119.714 26.1705V29.0227C119.714 29.8864 119.874 30.6326 120.192 31.2614C120.518 31.8902 120.976 32.375 121.567 32.7159C122.158 33.0568 122.858 33.2273 123.669 33.2273C124.207 33.2273 124.699 33.1515 125.146 33C125.593 32.8485 125.976 32.6212 126.294 32.3182C126.612 32.0152 126.855 31.6439 127.021 31.2045L131.499 31.5C131.271 32.5758 130.805 33.5152 130.101 34.3182C129.404 35.1136 128.502 35.7348 127.396 36.1818C126.298 36.6212 125.029 36.8409 123.589 36.8409ZM134.76 36.5V19.0455H139.453V22.0909H139.635C139.953 21.0076 140.487 20.1894 141.237 19.6364C141.987 19.0758 142.851 18.7955 143.828 18.7955C144.071 18.7955 144.332 18.8106 144.612 18.8409C144.893 18.8712 145.139 18.9129 145.351 18.9659V23.2614C145.124 23.1932 144.809 23.1326 144.408 23.0795C144.006 23.0265 143.639 23 143.305 23C142.593 23 141.957 23.1553 141.396 23.4659C140.843 23.7689 140.404 24.1932 140.078 24.7386C139.76 25.2841 139.601 25.9129 139.601 26.625V36.5H134.76ZM147.854 43.0455V19.0455H152.626V21.9773H152.842C153.054 21.5076 153.361 21.0303 153.763 20.5455C154.172 20.053 154.702 19.6439 155.354 19.3182C156.013 18.9848 156.831 18.8182 157.808 18.8182C159.081 18.8182 160.255 19.1515 161.331 19.8182C162.407 20.4773 163.267 21.4735 163.911 22.8068C164.554 24.1326 164.876 25.7955 164.876 27.7955C164.876 29.7424 164.562 31.3864 163.933 32.7273C163.312 34.0606 162.464 35.072 161.388 35.7614C160.32 36.4432 159.123 36.7841 157.797 36.7841C156.857 36.7841 156.058 36.6288 155.399 36.3182C154.748 36.0076 154.214 35.6174 153.797 35.1477C153.38 34.6705 153.062 34.1894 152.842 33.7045H152.695V43.0455H147.854ZM152.592 27.7727C152.592 28.8106 152.736 29.7159 153.024 30.4886C153.312 31.2614 153.729 31.8636 154.274 32.2955C154.82 32.7197 155.482 32.9318 156.263 32.9318C157.051 32.9318 157.717 32.7159 158.263 32.2841C158.808 31.8447 159.221 31.2386 159.501 30.4659C159.789 29.6856 159.933 28.7879 159.933 27.7727C159.933 26.7652 159.793 25.8788 159.513 25.1136C159.232 24.3485 158.82 23.75 158.274 23.3182C157.729 22.8864 157.058 22.6705 156.263 22.6705C155.475 22.6705 154.808 22.8788 154.263 23.2955C153.725 23.7121 153.312 24.303 153.024 25.0682C152.736 25.8333 152.592 26.7348 152.592 27.7727ZM176.058 36.8409C174.263 36.8409 172.717 36.4773 171.422 35.75C170.134 35.0152 169.142 33.9773 168.445 32.6364C167.748 31.2879 167.399 29.6932 167.399 27.8523C167.399 26.0568 167.748 24.4811 168.445 23.125C169.142 21.7689 170.123 20.7121 171.388 19.9545C172.661 19.197 174.153 18.8182 175.865 18.8182C177.017 18.8182 178.089 19.0038 179.081 19.375C180.081 19.7386 180.952 20.2879 181.695 21.0227C182.445 21.7576 183.028 22.6818 183.445 23.7955C183.861 24.9015 184.07 26.197 184.07 27.6818V29.0114H169.331V26.0114H179.513C179.513 25.3144 179.361 24.697 179.058 24.1591C178.755 23.6212 178.335 23.2008 177.797 22.8977C177.267 22.5871 176.649 22.4318 175.945 22.4318C175.21 22.4318 174.558 22.6023 173.99 22.9432C173.429 23.2765 172.99 23.7273 172.672 24.2955C172.354 24.8561 172.191 25.4811 172.183 26.1705V29.0227C172.183 29.8864 172.342 30.6326 172.661 31.2614C172.986 31.8902 173.445 32.375 174.036 32.7159C174.626 33.0568 175.327 33.2273 176.138 33.2273C176.676 33.2273 177.168 33.1515 177.615 33C178.062 32.8485 178.445 32.6212 178.763 32.3182C179.081 32.0152 179.323 31.6439 179.49 31.2045L183.967 31.5C183.74 32.5758 183.274 33.5152 182.57 34.3182C181.873 35.1136 180.971 35.7348 179.865 36.1818C178.767 36.6212 177.498 36.8409 176.058 36.8409ZM193.661 36.7841C192.335 36.7841 191.134 36.4432 190.058 35.7614C188.99 35.072 188.142 34.0606 187.513 32.7273C186.892 31.3864 186.581 29.7424 186.581 27.7955C186.581 25.7955 186.903 24.1326 187.547 22.8068C188.191 21.4735 189.047 20.4773 190.115 19.8182C191.191 19.1515 192.369 18.8182 193.649 18.8182C194.626 18.8182 195.441 18.9848 196.092 19.3182C196.751 19.6439 197.282 20.053 197.683 20.5455C198.092 21.0303 198.403 21.5076 198.615 21.9773H198.763V13.2273H203.592V36.5H198.82V33.7045H198.615C198.388 34.1894 198.066 34.6705 197.649 35.1477C197.24 35.6174 196.706 36.0076 196.047 36.3182C195.395 36.6288 194.6 36.7841 193.661 36.7841ZM195.195 32.9318C195.975 32.9318 196.634 32.7197 197.172 32.2955C197.717 31.8636 198.134 31.2614 198.422 30.4886C198.717 29.7159 198.865 28.8106 198.865 27.7727C198.865 26.7348 198.721 25.8333 198.433 25.0682C198.145 24.303 197.729 23.7121 197.183 23.2955C196.638 22.8788 195.975 22.6705 195.195 22.6705C194.399 22.6705 193.729 22.8864 193.183 23.3182C192.638 23.75 192.225 24.3485 191.945 25.1136C191.664 25.8788 191.524 26.7652 191.524 27.7727C191.524 28.7879 191.664 29.6856 191.945 30.4659C192.232 31.2386 192.645 31.8447 193.183 32.2841C193.729 32.7159 194.399 32.9318 195.195 32.9318ZM207.572 36.5V19.0455H212.413V36.5H207.572ZM210.004 16.7955C209.285 16.7955 208.667 16.5568 208.152 16.0795C207.644 15.5947 207.391 15.0152 207.391 14.3409C207.391 13.6742 207.644 13.1023 208.152 12.625C208.667 12.1402 209.285 11.8977 210.004 11.8977C210.724 11.8977 211.338 12.1402 211.845 12.625C212.36 13.1023 212.618 13.6742 212.618 14.3409C212.618 15.0152 212.36 15.5947 211.845 16.0795C211.338 16.5568 210.724 16.7955 210.004 16.7955ZM221.268 36.8295C220.155 36.8295 219.162 36.6364 218.291 36.25C217.42 35.8561 216.731 35.2765 216.223 34.5114C215.723 33.7386 215.473 32.7765 215.473 31.625C215.473 30.6553 215.651 29.8409 216.007 29.1818C216.363 28.5227 216.848 27.9924 217.462 27.5909C218.075 27.1894 218.772 26.8864 219.553 26.6818C220.34 26.4773 221.166 26.3333 222.03 26.25C223.045 26.1439 223.863 26.0455 224.484 25.9545C225.106 25.8561 225.556 25.7121 225.837 25.5227C226.117 25.3333 226.257 25.053 226.257 24.6818V24.6136C226.257 23.8939 226.03 23.3371 225.575 22.9432C225.128 22.5492 224.492 22.3523 223.666 22.3523C222.795 22.3523 222.102 22.5455 221.587 22.9318C221.071 23.3106 220.731 23.7879 220.564 24.3636L216.087 24C216.314 22.9394 216.761 22.0227 217.428 21.25C218.094 20.4697 218.954 19.8712 220.007 19.4545C221.068 19.0303 222.295 18.8182 223.689 18.8182C224.659 18.8182 225.587 18.9318 226.473 19.1591C227.367 19.3864 228.159 19.7386 228.848 20.2159C229.545 20.6932 230.094 21.3068 230.496 22.0568C230.897 22.7992 231.098 23.6894 231.098 24.7273V36.5H226.507V34.0795H226.371C226.09 34.625 225.715 35.1061 225.246 35.5227C224.776 35.9318 224.212 36.2538 223.553 36.4886C222.893 36.7159 222.132 36.8295 221.268 36.8295ZM222.655 33.4886C223.367 33.4886 223.996 33.3485 224.541 33.0682C225.087 32.7803 225.515 32.3939 225.825 31.9091C226.136 31.4242 226.291 30.875 226.291 30.2614V28.4091C226.14 28.5076 225.931 28.5985 225.666 28.6818C225.409 28.7576 225.117 28.8295 224.791 28.8977C224.465 28.9583 224.14 29.0152 223.814 29.0682C223.488 29.1136 223.193 29.1553 222.928 29.1932C222.359 29.2765 221.863 29.4091 221.439 29.5909C221.015 29.7727 220.685 30.0189 220.45 30.3295C220.215 30.6326 220.098 31.0114 220.098 31.4659C220.098 32.125 220.337 32.6288 220.814 32.9773C221.299 33.3182 221.912 33.4886 222.655 33.4886Z" fill="#A64F21"/>
</svg>
