<svg width="25" height="24" viewBox="0 0 25 24" fill="none" xmlns="http://www.w3.org/2000/svg">
<path fill-rule="evenodd" clip-rule="evenodd" d="M1.5 12.0014C1.5 5.92627 6.42487 1.0014 12.5 1.0014C18.5751 1.0014 23.5 5.92627 23.5 12.0014C23.5 18.0765 18.5751 23.0014 12.5 23.0014C6.42487 23.0014 1.5 18.0765 1.5 12.0014ZM8.40822 3.63902C5.31912 5.15339 3.19231 8.32902 3.19231 12.0014C3.19231 13.3866 3.49491 14.7012 4.03761 15.8825L5.13245 14.7877C5.39279 14.5274 5.78058 14.4721 6.09499 14.622C6.04231 14.5117 6.01282 14.3882 6.01282 14.2578V12.0014C6.01282 11.5341 6.39166 11.1553 6.85897 11.1553C7.32629 11.1553 7.70513 11.5341 7.70513 12.0014V14.2578C7.70513 14.7251 7.32629 15.104 6.85897 15.104C6.72858 15.104 6.60508 15.0745 6.49477 15.0218C6.64466 15.3362 6.58944 15.724 6.32909 15.9843L5.20089 17.1125C5.10217 17.2113 4.98513 17.2805 4.86072 17.3202C5.762 18.6123 6.9827 19.665 8.40835 20.3639C8.32041 20.2304 8.26923 20.0706 8.26923 19.8988V17.6424C8.26923 17.1751 8.64807 16.7963 9.11539 16.7963C9.5827 16.7963 9.96154 17.1751 9.96154 17.6424V19.8988C9.96154 20.3149 9.66122 20.6609 9.26552 20.7317C10.273 21.1051 11.3627 21.3091 12.5 21.3091C17.6405 21.3091 21.8077 17.1419 21.8077 12.0014C21.8077 8.32897 19.6808 5.1533 16.5916 3.63895C16.6796 3.77239 16.7308 3.9322 16.7308 4.10397V6.36038C16.7308 6.8277 16.3519 7.20653 15.8846 7.20653C15.4173 7.20653 15.0385 6.8277 15.0385 6.36038V4.10397C15.0385 3.68789 15.3388 3.34195 15.7345 3.27109C15.3261 3.11975 14.9043 2.99624 14.4712 2.90286C14.4919 3.14301 14.4103 3.3903 14.2265 3.57408L13.0983 4.70229C12.7679 5.03273 12.2321 5.03273 11.9017 4.70229C11.5712 4.37185 11.5712 3.83609 11.9017 3.50565L12.7113 2.69606C12.641 2.6945 12.5706 2.69371 12.5 2.69371C11.3626 2.69371 10.2729 2.89772 9.26539 3.27114C9.4296 3.30057 9.5868 3.37874 9.71371 3.50565L10.8419 4.63385C11.1724 4.9643 11.1724 5.50005 10.8419 5.83049C10.5115 6.16094 9.97571 6.16094 9.64527 5.83049L8.51706 4.70229C8.22811 4.41334 8.19183 3.96739 8.40822 3.63902ZM6.85897 5.51422C7.32629 5.51422 7.70513 5.89306 7.70513 6.36038V8.61679C7.70513 9.08411 7.32629 9.46294 6.85897 9.46294C6.72858 9.46294 6.60508 9.43345 6.49477 9.38077C6.64466 9.69519 6.58944 10.083 6.32909 10.3433L5.20089 11.4715C4.87044 11.802 4.33469 11.802 4.00424 11.4715C3.6738 11.1411 3.6738 10.6053 4.00424 10.2749L5.13245 9.14667C5.39279 8.88633 5.78058 8.8311 6.09499 8.98099C6.04231 8.87068 6.01282 8.74718 6.01282 8.61679V6.36038C6.01282 5.89306 6.39166 5.51422 6.85897 5.51422ZM10.7735 6.89026L11.9017 5.76206C12.2321 5.43161 12.7679 5.43161 13.0983 5.76206C13.4288 6.0925 13.4288 6.62826 13.0983 6.9587L12.2808 7.77622C12.3534 7.77251 12.4265 7.77063 12.5 7.77063C14.8366 7.77063 16.7308 9.66481 16.7308 12.0014C16.7308 14.338 14.8366 16.2322 12.5 16.2322C10.1634 16.2322 8.26923 14.338 8.26923 12.0014C8.26923 10.2655 9.31465 8.77384 10.8102 8.12157C10.7977 8.11045 10.7855 8.09889 10.7735 8.08691C10.443 7.75646 10.443 7.22071 10.7735 6.89026ZM18.7393 6.89026C19.0698 7.22071 19.0698 7.75646 18.7393 8.08691L17.6111 9.21511C17.2807 9.54555 16.7449 9.54555 16.4145 9.21511C16.0841 8.88467 16.0841 8.34891 16.4145 8.01847L17.5427 6.89026C17.8731 6.55982 18.4089 6.55982 18.7393 6.89026ZM12.5 9.46294C11.098 9.46294 9.96154 10.5995 9.96154 12.0014C9.96154 13.4034 11.098 14.5399 12.5 14.5399C13.902 14.5399 15.0385 13.4034 15.0385 12.0014C15.0385 10.5995 13.902 9.46294 12.5 9.46294ZM18.6709 9.14667C19.0014 8.81623 19.5371 8.81623 19.8676 9.14667L20.9958 10.2749C21.3262 10.6053 21.3262 11.1411 20.9958 11.4715C20.6653 11.802 20.1296 11.802 19.7991 11.4715L18.6709 10.3433C18.3405 10.0129 18.3405 9.47712 18.6709 9.14667ZM19.2692 12.2835C19.7365 12.2835 20.1154 12.6623 20.1154 13.1296V15.386C20.1154 15.8533 19.7365 16.2322 19.2692 16.2322C18.8019 16.2322 18.4231 15.8533 18.4231 15.386V13.1296C18.4231 12.6623 18.8019 12.2835 19.2692 12.2835ZM15.2863 17.1125C14.9559 16.7821 14.9559 16.2463 15.2863 15.9159C15.6167 15.5855 16.1525 15.5855 16.4829 15.9159L17.6111 17.0441C17.9416 17.3746 17.9416 17.9103 17.6111 18.2408C17.2807 18.5712 16.7449 18.5712 16.4145 18.2408L15.2863 17.1125ZM14.2265 18.1723C14.557 18.5028 14.557 19.0385 14.2265 19.369L13.0983 20.4972C12.7679 20.8276 12.2321 20.8276 11.9017 20.4972C11.5712 20.1667 11.5712 19.631 11.9017 19.3005L13.0299 18.1723C13.3603 17.8419 13.8961 17.8419 14.2265 18.1723Z" fill="#50545E"/>
</svg>
