<svg width="25" height="24" viewBox="0 0 25 24" fill="none" xmlns="http://www.w3.org/2000/svg">
<g clip-path="url(#clip0_1486_233)">
<path fill-rule="evenodd" clip-rule="evenodd" d="M21.9879 2.51205C21.1349 1.65902 19.7519 1.65902 18.8988 2.51205L17.0381 4.37283C17.5282 4.47505 18.0418 4.62439 18.6094 4.8151C19.0995 4.97977 19.3633 5.51055 19.1987 6.00064C19.034 6.49074 18.5032 6.75455 18.0131 6.58989C16.8556 6.20098 16.1078 6.05633 15.3714 6.09008C15.2786 6.17212 15.1878 6.25746 15.0992 6.34608L14.7408 6.70363C14.6899 6.7544 14.6346 6.79809 14.5762 6.83472L13.5551 7.8558C14.0452 7.95803 14.5588 8.10736 15.1265 8.29808C15.6166 8.46274 15.8804 8.99352 15.7157 9.48362C15.551 9.97371 15.0203 10.2375 14.5302 10.0729C13.3726 9.68395 12.6248 9.53931 11.8885 9.57305C11.7957 9.6551 11.7049 9.74043 11.6163 9.82905L11.2578 10.1866C11.2069 10.2374 11.1516 10.2811 11.0932 10.3177L10.0721 11.3388C10.5623 11.441 11.0759 11.5903 11.6435 11.781C12.1336 11.9457 12.3974 12.4765 12.2327 12.9666C12.0681 13.4567 11.5373 13.7205 11.0472 13.5558C9.88967 13.1669 9.14182 13.0223 8.40548 13.056C8.31269 13.1381 8.2219 13.2234 8.13329 13.312L7.77484 13.6696C7.72395 13.7203 7.66867 13.764 7.61024 13.8007L6.58913 14.8218C7.0793 14.924 7.59292 15.0733 8.16052 15.264C8.65061 15.4287 8.91442 15.9595 8.74976 16.4496C8.58509 16.9397 8.05431 17.2035 7.56422 17.0388C6.406 16.6497 5.65814 16.5052 4.92205 16.5394C4.82942 16.6213 4.73878 16.7065 4.6503 16.795L4.29315 17.1522C4.24134 17.204 4.18498 17.2484 4.12534 17.2856L3.01205 18.3988C2.15902 19.2519 2.15902 20.6349 3.01205 21.4879C3.86508 22.341 5.24812 22.341 6.10115 21.4879L21.9879 5.60115C22.841 4.74812 22.841 3.36508 21.9879 2.51205ZM17.5749 1.18815C19.1591 -0.39605 21.7276 -0.39605 23.3118 1.18815C24.8961 2.77235 24.8961 5.34085 23.3118 6.92505L7.42505 22.8118C5.84085 24.3961 3.27235 24.3961 1.68815 22.8118C0.10395 21.2276 0.10395 18.6591 1.68815 17.0749L17.5749 1.18815Z" fill="#50545E"/>
</g>
<defs>
<clipPath id="clip0_1486_233">
<rect width="24" height="24" fill="white" transform="translate(0.5)"/>
</clipPath>
</defs>
</svg>
