<svg width="25" height="24" viewBox="0 0 25 24" fill="none" xmlns="http://www.w3.org/2000/svg">
<g clip-path="url(#clip0_1486_421)">
<path fill-rule="evenodd" clip-rule="evenodd" d="M7.53876 1.99902C7.80812 1.99902 8.06102 2.13171 8.21834 2.35555C8.6434 2.96037 8.97886 3.49482 9.21152 3.95216C9.42851 4.3787 9.61628 4.85049 9.61628 5.29426C9.61628 5.41826 9.60564 5.53913 9.58529 5.65617H10.4535C10.4331 5.53913 10.4225 5.41826 10.4225 5.29426C10.4225 4.85049 10.6102 4.3787 10.8272 3.95216C11.0599 3.49482 11.3954 2.96037 11.8204 2.35555C11.9777 2.13171 12.2306 1.99902 12.5 1.99902C12.7694 1.99902 13.0223 2.13171 13.1796 2.35555C13.6046 2.96037 13.9401 3.49482 14.1728 3.95216C14.3898 4.3787 14.5775 4.85049 14.5775 5.29426C14.5775 5.41826 14.5669 5.53913 14.5465 5.65617H15.4147C15.3944 5.53913 15.3837 5.41826 15.3837 5.29426C15.3837 4.85049 15.5715 4.3787 15.7885 3.95216C16.0211 3.49482 16.3566 2.96037 16.7817 2.35555C16.939 2.13171 17.1919 1.99902 17.4612 1.99902C17.7306 1.99902 17.9835 2.13171 18.1408 2.35555C18.5659 2.96037 18.9013 3.49482 19.134 3.95216C19.351 4.3787 19.5388 4.85049 19.5388 5.29426C19.5388 5.41826 19.5281 5.53913 19.5078 5.65617H21.1822C21.6446 5.65617 22.0194 6.03992 22.0194 6.51331V17.8466H23.6628C24.1252 17.8466 24.5 18.2304 24.5 18.7038C24.5 20.5237 23.059 21.999 21.2814 21.999H3.7186C1.94102 21.999 0.5 20.5237 0.5 18.7038C0.5 18.2304 0.874831 17.8466 1.33721 17.8466H2.98062V6.51331C2.98062 6.03992 3.35545 5.65617 3.81783 5.65617H5.49223C5.47188 5.53913 5.46124 5.41826 5.46124 5.29426C5.46124 4.85049 5.64901 4.3787 5.86599 3.95216C6.09865 3.49482 6.43412 2.96037 6.85918 2.35555C7.0165 2.13171 7.2694 1.99902 7.53876 1.99902ZM4.65504 7.37045V10.0419C5.84185 9.58494 7.19153 9.86004 8.11855 10.7712C8.56709 11.212 9.25222 11.2809 9.77592 10.9377L10.1882 10.6676C11.5975 9.74417 13.4025 9.74417 14.8118 10.6676L15.2241 10.9377C15.7478 11.2809 16.4329 11.212 16.8814 10.7712C17.8085 9.86004 19.1581 9.58494 20.345 10.0419V7.37045H4.65504ZM20.345 11.9288L19.8893 11.7049C19.2718 11.4015 18.5352 11.5222 18.041 12.0078C17.0344 12.9972 15.4968 13.1517 14.3215 12.3816L13.9092 12.1114C13.0502 11.5486 11.9498 11.5486 11.0908 12.1114L10.6785 12.3816C9.50321 13.1517 7.9656 12.9972 6.95897 12.0078C6.46484 11.5222 5.72822 11.4015 5.11071 11.7049L4.65504 11.9288V17.8466H20.345V11.9288ZM2.42085 19.5609C2.69586 19.9965 3.17435 20.2847 3.7186 20.2847H21.2814C21.8256 20.2847 22.3041 19.9965 22.5792 19.5609H2.42085ZM17.4612 5.65617C17.7164 5.65617 17.8643 5.46149 17.8643 5.29426C17.8643 5.29602 17.8644 5.29693 17.8643 5.29693C17.8641 5.29695 17.8611 5.25611 17.8303 5.16206C17.7966 5.05922 17.7391 4.92121 17.6489 4.74405C17.5956 4.6391 17.5331 4.52501 17.4612 4.4016C17.3894 4.52501 17.3269 4.6391 17.2735 4.74405C17.1834 4.92121 17.1259 5.05922 17.0922 5.16206C17.0614 5.25611 17.0584 5.29695 17.0582 5.29693C17.0581 5.29693 17.0581 5.29602 17.0581 5.29426C17.0581 5.46149 17.2061 5.65617 17.4612 5.65617ZM12.5 5.65617C12.7552 5.65617 12.9031 5.46149 12.9031 5.29426C12.9031 5.29602 12.9031 5.29693 12.9031 5.29693C12.9028 5.29695 12.8999 5.25611 12.8691 5.16206C12.8354 5.05922 12.7778 4.92121 12.6877 4.74405C12.6343 4.6391 12.5719 4.52501 12.5 4.4016C12.4281 4.52501 12.3657 4.6391 12.3123 4.74405C12.2222 4.92121 12.1646 5.05922 12.1309 5.16206C12.1001 5.25611 12.0972 5.29695 12.0969 5.29693C12.0969 5.29693 12.0969 5.29602 12.0969 5.29426C12.0969 5.46149 12.2448 5.65617 12.5 5.65617ZM7.53876 5.65617C7.79393 5.65617 7.94186 5.46149 7.94186 5.29426C7.94186 5.29602 7.94188 5.29693 7.94185 5.29693C7.9416 5.29695 7.93865 5.25611 7.90783 5.16206C7.87412 5.05922 7.81658 4.92121 7.72646 4.74405C7.67307 4.6391 7.61062 4.52501 7.53876 4.4016C7.4669 4.52501 7.40445 4.6391 7.35106 4.74405C7.26094 4.92121 7.2034 5.05922 7.16969 5.16206C7.13887 5.25611 7.13592 5.29695 7.13567 5.29693C7.13564 5.29693 7.13566 5.29602 7.13566 5.29426C7.13566 5.46149 7.28359 5.65617 7.53876 5.65617Z" fill="#50545E"/>
</g>
<defs>
<clipPath id="clip0_1486_421">
<rect width="24" height="24" fill="white" transform="translate(0.5)"/>
</clipPath>
</defs>
</svg>
