<svg width="25" height="24" viewBox="0 0 25 24" fill="none" xmlns="http://www.w3.org/2000/svg">
<g clip-path="url(#clip0_1486_506)">
<path fill-rule="evenodd" clip-rule="evenodd" d="M9.37028 4.74242C5.41954 4.74242 2.21683 7.99197 2.21683 12.0005C2.21683 16.009 5.41954 19.2586 9.37028 19.2586C9.86106 19.2586 10.3399 19.2085 10.8021 19.1133C8.93665 17.6437 7.66479 15.4352 7.41311 12.9207C7.38283 12.6181 7.36731 12.3111 7.36731 12.0005C7.36731 11.6312 7.38923 11.2672 7.43181 10.9096C7.72281 8.46597 8.97896 6.32399 10.8021 4.88767C10.3398 4.79245 9.86104 4.74242 9.37028 4.74242ZM12.8037 3.69972C11.7467 3.24917 10.5861 3.00049 9.37028 3.00049C4.47136 3.00049 0.5 7.02993 0.5 12.0005C0.5 16.9711 4.47136 21.0005 9.37028 21.0005C10.5864 21.0005 11.7472 20.7517 12.8039 20.3014C13.8601 20.7517 15.0202 21.0005 16.2376 21.0005C18.6868 21.0005 20.9056 19.9922 22.5098 18.3644C23.0948 17.7709 23.7226 16.7978 24.3976 15.5246C24.5671 15.2049 24.5233 14.8119 24.2877 14.5386L22.8188 12.8346V9.67791C22.8188 9.34801 22.6351 9.04643 22.3443 8.89889L20.5297 7.97833V6.19404C20.5297 5.96304 20.4392 5.74151 20.2782 5.57817L17.9891 3.25559C17.8282 3.09225 17.6098 3.00049 17.3821 3.00049H16.2376C15.0201 3.00049 13.8599 3.24937 12.8037 3.69972ZM9.12108 11.2584C9.37879 8.68352 10.963 6.50533 13.1729 5.44096C13.1815 5.43682 13.19 5.43255 13.1984 5.42815C14.1208 4.98828 15.1509 4.74242 16.2376 4.74242H17.0266L18.8128 6.5548V8.51662C18.8128 8.84652 18.9965 9.1481 19.2874 9.29563L21.1019 10.2162V13.1618C21.1019 13.3727 21.1774 13.5764 21.3142 13.7352L22.5991 15.2257C22.0706 16.1689 21.6354 16.7882 21.2959 17.1327C20.0004 18.4471 18.2132 19.2586 16.2376 19.2586C12.6132 19.2586 9.61835 16.5237 9.14832 12.9769C9.106 12.6575 9.08414 12.3316 9.08414 12.0005C9.08414 11.75 9.09665 11.5024 9.12108 11.2584ZM13.0901 8.51662C13.0901 7.39423 13.9868 6.48436 15.093 6.48436C16.1993 6.48436 17.096 7.39423 17.096 8.51662C17.096 9.639 16.1993 10.5489 15.093 10.5489C13.9868 10.5489 13.0901 9.639 13.0901 8.51662ZM15.093 8.22629C14.935 8.22629 14.8069 8.35628 14.8069 8.51662C14.8069 8.67696 14.935 8.80694 15.093 8.80694C15.2511 8.80694 15.3792 8.67696 15.3792 8.51662C15.3792 8.35628 15.2511 8.22629 15.093 8.22629ZM10.801 14.3231C10.801 13.2007 11.6977 12.2908 12.8039 12.2908C13.9101 12.2908 14.8069 13.2007 14.8069 14.3231C14.8069 15.4455 13.9101 16.3553 12.8039 16.3553C11.6977 16.3553 10.801 15.4455 10.801 14.3231ZM12.8039 14.0327C12.6459 14.0327 12.5178 14.1627 12.5178 14.3231C12.5178 14.4834 12.6459 14.6134 12.8039 14.6134C12.962 14.6134 13.0901 14.4834 13.0901 14.3231C13.0901 14.1627 12.962 14.0327 12.8039 14.0327ZM16.5237 14.3231C16.5237 13.2007 17.4205 12.2908 18.5267 12.2908C19.6329 12.2908 20.5297 13.2007 20.5297 14.3231C20.5297 15.4455 19.6329 16.3553 18.5267 16.3553C17.4205 16.3553 16.5237 15.4455 16.5237 14.3231ZM18.5267 14.0327C18.3687 14.0327 18.2406 14.1627 18.2406 14.3231C18.2406 14.4834 18.3687 14.6134 18.5267 14.6134C18.6847 14.6134 18.8128 14.4834 18.8128 14.3231C18.8128 14.1627 18.6847 14.0327 18.5267 14.0327Z" fill="#50545E"/>
</g>
<defs>
<clipPath id="clip0_1486_506">
<rect width="24" height="24" fill="white" transform="translate(0.5)"/>
</clipPath>
</defs>
</svg>
