<svg width="25" height="24" viewBox="0 0 25 24" fill="none" xmlns="http://www.w3.org/2000/svg">
<path fill-rule="evenodd" clip-rule="evenodd" d="M9.58411 3.42665C9.82025 2.04525 11.0415 1.0014 12.5 1.0014C13.9587 1.0014 15.1801 2.04552 15.416 3.42718C19.5529 4.60018 22.6462 8.21049 22.9717 12.5851C22.9904 12.7253 23 12.8678 23 13.0122C23 14.1519 22.4063 15.15 21.5108 15.7298L20.241 22.2778C20.1595 22.6978 19.7887 23.0014 19.3571 23.0014H5.64286C5.21129 23.0014 4.84047 22.6978 4.75903 22.2778L3.48933 15.7299C2.5937 15.15 2 14.1519 2 13.0122C2 12.8637 2.01018 12.717 2.02999 12.5729L2.03357 12.5161C2.38657 8.17243 5.46844 4.59458 9.58411 3.42665ZM9.85007 5.21003C6.55375 6.24361 4.11605 9.15387 3.82854 12.6516L3.82427 12.7193C3.82266 12.7448 3.81995 12.7702 3.81615 12.7954C3.80556 12.8657 3.8 12.938 3.8 13.0122C3.8 13.5958 4.15096 14.1058 4.66349 14.3409C4.66539 14.3418 4.6673 14.3426 4.66919 14.3435C4.6925 14.3541 4.71614 14.3641 4.7401 14.3735C4.88997 14.4325 5.05211 14.4685 5.22218 14.477C5.24795 14.4782 5.27389 14.4789 5.3 14.4789C5.73243 14.4789 6.11944 14.3008 6.39199 14.0177C6.61608 13.7847 6.76274 13.4806 6.79382 13.1459L6.7994 12.9941C6.79998 12.9781 6.80099 12.9622 6.8024 12.9465C6.83634 12.4846 7.22524 12.1203 7.7 12.1203C8.19706 12.1203 8.6 12.5196 8.6 13.0122C8.6 13.0193 8.60005 13.0263 8.60015 13.0334L8.60482 13.1303C8.63267 13.4704 8.77979 13.7797 9.0065 14.0161C9.27912 14.3001 9.66674 14.4789 10.1 14.4789C10.1804 14.4789 10.2592 14.4727 10.336 14.4609C10.4187 14.4482 10.499 14.4288 10.5764 14.4035C11.1431 14.2181 11.5547 13.7109 11.5955 13.1106L11.5993 12.9971C11.5998 12.9822 11.6007 12.9673 11.6019 12.9524L11.6031 12.9381C11.6432 12.4616 12.0553 12.1012 12.5374 12.1211C13.0195 12.141 13.4 12.5341 13.4 13.0122C13.4 13.0193 13.4001 13.0263 13.4002 13.0334L13.4048 13.1303C13.4325 13.4689 13.5785 13.7771 13.8036 14.013C14.0763 14.2988 14.4652 14.4789 14.9 14.4789C15.3348 14.4789 15.7237 14.2988 15.9964 14.013C16.2201 13.7786 16.3656 13.4728 16.3946 13.1367L16.3993 12.9971C16.3994 12.9922 16.3996 12.9874 16.3999 12.9826C16.4 12.9497 16.4012 12.8939 16.4068 12.8381C16.4549 12.3603 16.876 12.006 17.3596 12.0365C17.8431 12.067 18.2155 12.4714 18.2021 12.9514L18.2 13.0232C18.2001 13.0266 18.2001 13.03 18.2002 13.0334L18.2048 13.1303C18.2325 13.4689 18.3785 13.7771 18.6036 14.013C18.8763 14.2988 19.2652 14.4789 19.7 14.4789C19.7263 14.4789 19.7525 14.4782 19.7784 14.4769C19.9764 14.467 20.1624 14.42 20.3309 14.3435C20.3328 14.3426 20.3347 14.3418 20.3366 14.3409C20.8346 14.1124 21.1801 13.6243 21.1992 13.0613C21.1962 13.0389 21.194 13.0162 21.1927 12.9933L21.1784 12.7418C20.9253 9.20295 18.4738 6.25163 15.1497 5.2104C14.6647 6.17156 13.657 6.82843 12.5 6.82843C11.3428 6.82843 10.3351 6.17139 9.85007 5.21003ZM13.6571 3.91492C13.6571 4.53183 13.1462 5.04465 12.5 5.04465C11.9093 5.04465 11.4316 4.61608 11.3539 4.07121C11.3527 4.0528 11.3509 4.03431 11.3485 4.01577C11.3451 3.98988 11.3429 3.95657 11.3429 3.91492C11.3429 3.29801 11.8538 2.78519 12.5 2.78519C13.1462 2.78519 13.6571 3.29801 13.6571 3.91492ZM17.3 15.2432C16.6973 15.8718 15.8435 16.2627 14.9 16.2627C13.9565 16.2627 13.1027 15.8718 12.5 15.2432C11.9605 15.8059 11.2199 16.1781 10.3937 16.2499C10.2969 16.2584 10.199 16.2627 10.1 16.2627C9.15646 16.2627 8.30267 15.8718 7.7 15.2432C7.1241 15.8439 6.31888 16.2275 5.42513 16.2604L6.38638 21.2176H18.6136L19.5749 16.2604C18.6812 16.2275 17.8759 15.8439 17.3 15.2432ZM8.44459 16.5075C8.93774 16.4459 9.38791 16.7921 9.45008 17.2809L9.79293 19.9763C9.8551 20.4651 9.50571 20.9112 9.01255 20.9728C8.5194 21.0344 8.06923 20.6881 8.00707 20.1994L7.66421 17.5039C7.60205 17.0152 7.95143 16.5691 8.44459 16.5075ZM16.8983 16.5075C17.3914 16.5691 17.7408 17.0152 17.6786 17.5039L17.3358 20.1994C17.2736 20.6881 16.8235 21.0344 16.3303 20.9728C15.8371 20.9112 15.4878 20.4651 15.5499 19.9763L15.8928 17.2809C15.9549 16.7921 16.4051 16.4459 16.8983 16.5075ZM12.6714 16.5005C13.1685 16.5005 13.5714 16.8998 13.5714 17.3924V20.0879C13.5714 20.5805 13.1685 20.9798 12.6714 20.9798C12.1744 20.9798 11.7714 20.5805 11.7714 20.0879V17.3924C11.7714 16.8998 12.1744 16.5005 12.6714 16.5005Z" fill="#50545E"/>
</svg>
