<svg width="25" height="24" viewBox="0 0 25 24" fill="none" xmlns="http://www.w3.org/2000/svg">
<g clip-path="url(#clip0_1486_312)">
<path fill-rule="evenodd" clip-rule="evenodd" d="M15.371 4.87641C13.5115 4.21864 11.4885 4.21864 9.62896 4.87641L9.1796 5.03536C9.0995 5.06369 9.02187 5.09884 8.94755 5.14043C8.2154 5.55011 7.94791 6.48681 8.35009 7.23262C9.14573 8.70808 9.68333 10.3101 9.94188 11.9669C10.035 12.4772 10.1054 12.9924 10.1527 13.5111L10.2456 14.5316C10.2536 14.6194 10.2494 14.7061 10.2342 14.7895C11.6918 15.3632 13.3082 15.3632 14.7658 14.7895C14.7506 14.7061 14.7464 14.6194 14.7544 14.5316L14.8473 13.5111C14.8946 12.9924 14.965 12.4772 15.0581 11.9669C15.3167 10.3101 15.8543 8.70808 16.6499 7.23262C16.6907 7.15691 16.7252 7.07784 16.7531 6.99623C17.0271 6.1924 16.6095 5.31449 15.8204 5.03536L15.371 4.87641ZM18.5541 5.54827C18.2626 4.51509 17.499 3.63747 16.4263 3.25803L15.9769 3.09908C13.7249 2.3025 11.2751 2.3025 9.0231 3.09908L8.57374 3.25803C8.39581 3.32097 8.2234 3.39904 8.05831 3.49141C7.24097 3.94876 6.68435 4.70182 6.44625 5.54813L5.46888 5.95152C3.51767 6.75684 1.97553 8.34132 1.20177 10.3358C0.833691 11.2846 0.811087 12.2954 1.08181 13.214C0.965809 13.3334 0.881729 13.4839 0.841379 13.6515L0.730474 14.1119C0.13795 16.572 0.70231 19.1728 2.25752 21.1493C2.45031 21.3943 2.7504 21.5252 3.05751 21.4982C3.36462 21.4712 3.63826 21.2898 3.78699 21.0148L5.76624 17.3545C6.69655 17.7411 7.78857 17.3944 8.32833 16.4961C8.42314 16.3383 8.53627 16.1945 8.66447 16.0671C8.73722 16.1432 8.82312 16.2073 8.9196 16.2555C11.1782 17.3831 13.8218 17.3831 16.0804 16.2555C16.1769 16.2073 16.2628 16.1432 16.3355 16.0671C16.4637 16.1945 16.5769 16.3383 16.6717 16.4961C17.2114 17.3944 18.3034 17.7411 19.2338 17.3545L21.213 21.0148C21.3617 21.2898 21.6354 21.4712 21.9425 21.4982C22.2496 21.5252 22.5497 21.3943 22.7425 21.1493C24.2977 19.1728 24.862 16.572 24.2695 14.1119L24.1586 13.6515C24.1183 13.4839 24.0342 13.3334 23.9182 13.214C24.1889 12.2954 24.1663 11.2846 23.7982 10.3358C23.0245 8.34132 21.4823 6.75684 19.5311 5.95152L18.5541 5.54827ZM16.7062 14.0366L16.7657 13.2632C16.791 12.9357 16.8286 12.6099 16.8784 12.2865C17.1689 10.7099 17.7033 9.18704 18.4643 7.77584L18.5678 7.58391L18.8375 7.69526C20.3205 8.3073 21.4925 9.51149 22.0805 11.0273C22.5272 12.1786 22.0843 13.4897 21.0368 14.1173L19.8443 14.8317C19.844 14.8319 19.8446 14.8316 19.8443 14.8317L18.5689 15.5959C18.4576 15.6625 18.3144 15.6261 18.247 15.5139C17.87 14.8865 17.3364 14.378 16.7062 14.0366ZM22.6146 15.3547L20.8369 16.4197L22.074 18.7075C22.552 17.666 22.7415 16.5056 22.6146 15.3547ZM8.12156 12.2865C8.1714 12.6099 8.20904 12.9357 8.23427 13.2632L8.29384 14.0366C7.66359 14.378 7.13004 14.8865 6.75302 15.5139C6.68562 15.6261 6.54242 15.6625 6.43113 15.5959L5.15671 14.8323C5.15638 14.8321 5.15704 14.8325 5.15671 14.8323L3.9632 14.1173C3.96276 14.117 3.96231 14.1167 3.96187 14.1165C2.91532 13.4886 2.47302 12.1781 2.91947 11.0273C3.50753 9.51149 4.67954 8.3073 6.16246 7.69526L6.43224 7.58392L6.53573 7.77584C7.29672 9.18704 7.83113 10.7099 8.12156 12.2865ZM2.38536 15.3547C2.25852 16.5056 2.44804 17.666 2.926 18.7075L4.16308 16.4197L3.02685 15.739C3.02625 15.7386 3.02565 15.7383 3.02505 15.7379L2.38536 15.3547Z" fill="#50545E"/>
</g>
<defs>
<clipPath id="clip0_1486_312">
<rect width="24" height="24" fill="white" transform="translate(0.5)"/>
</clipPath>
</defs>
</svg>
